<?xml version="1.0" standalone="no"?>
<!DOCTYPE svg PUBLIC "-//W3C//DTD SVG 20010904//EN"
 "http://www.w3.org/TR/2001/REC-SVG-20010904/DTD/svg10.dtd">
<svg version="1.0" xmlns="http://www.w3.org/2000/svg"
 width="121.000000pt" height="132.000000pt" viewBox="0 0 121.000000 132.000000"
 preserveAspectRatio="xMidYMid meet">

<g transform="translate(0.000000,132.000000) scale(0.100000,-0.100000)"
fill="#0B251F" stroke="none">
<path d="M545 1259 c-22 -12 -43 -24 -47 -28 -4 -3 68 -49 159 -101 92 -52
174 -103 182 -113 13 -14 17 -56 21 -227 l5 -209 58 35 57 36 0 196 c0 170 -3
201 -18 225 -21 35 -314 207 -352 207 -14 0 -43 -9 -65 -21z"/>
<path d="M380 1163 c-56 -22 -311 -179 -325 -200 -10 -14 -19 -42 -22 -62 -8
-73 1 -71 190 38 96 56 181 101 188 101 7 0 90 -45 185 -100 96 -55 177 -100
181 -100 4 0 6 30 3 67 l-5 67 -161 93 c-154 89 -202 109 -234 96z"/>
<path d="M1051 825 c2 -192 1 -207 -17 -224 -10 -10 -91 -60 -179 -111 -88
-50 -166 -97 -173 -104 -9 -9 -12 -33 -10 -74 l3 -62 220 125 c121 69 232 139
248 155 l27 30 0 185 c0 101 -4 194 -9 207 -9 24 -80 78 -101 78 -8 0 -11 -62
-9 -205z"/>
<path d="M241 860 c-95 -54 -179 -107 -187 -117 -10 -14 -13 -64 -14 -213 0
-234 -9 -217 160 -313 63 -36 166 -95 228 -131 l113 -66 -3 71 -3 71 -185 107
-185 107 -3 151 -3 151 181 102 c99 57 180 106 180 109 0 3 -8 11 -17 17 -10
5 -34 20 -54 32 l-35 21 -173 -99z"/>
<path d="M290 665 l-55 -31 -3 -89 c-3 -93 2 -135 17 -135 5 0 70 -36 146 -80
76 -44 139 -80 141 -80 2 0 4 29 4 65 l0 65 -52 34 c-29 18 -72 43 -95 55
l-42 21 -3 103 -3 103 -55 -31z"/>
<path d="M1146 434 c-11 -7 -115 -68 -232 -135 -117 -66 -221 -130 -231 -141
-13 -14 -18 -34 -16 -70 0 -27 4 -52 7 -55 9 -10 445 247 470 278 29 34 41 84
29 116 -7 19 -10 20 -27 7z"/>
</g>
</svg>
